<svg xmlns="http://www.w3.org/2000/svg" viewBox="0 0 1200 400"><path fill="#0f172a" d="M0 0h1200v400H0z"/><path fill="#7c3aed" d="M0 0h6v400H0z"/><text x="900" y="340" fill="#7c3aed" font-family="Georgia,serif" font-size="320" font-weight="700" opacity=".07">B</text><text x="80" y="160" fill="#a78bfa" font-family="Georgia,serif" font-size="80" opacity=".15">β</text><g stroke="#a78bfa" stroke-width=".5" opacity=".04"><path d="M0 100h1200M0 200h1200M0 300h1200M300 0v400M600 0v400M900 0v400"/></g><text x="80" y="60" fill="#a78bfa" font-family="system-ui,sans-serif" font-size="14" font-weight="600" letter-spacing="3" opacity=".6">MYP SCIENCES · CRITERION B</text><g fill="#a78bfa" opacity=".12"><rect width="60" height="8" x="80" y="350" opacity=".3" rx="4"/><rect width="80" height="8" x="160" y="350" opacity=".5" rx="4"/><rect width="100" height="8" x="260" y="350" opacity=".7" rx="4"/><rect width="120" height="8" x="380" y="350" opacity="1" rx="4"/><text x="85" y="345" font-family="system-ui,sans-serif" font-size="9" opacity=".4">1-2</text><text x="170" y="345" font-family="system-ui,sans-serif" font-size="9" opacity=".4">3-4</text><text x="275" y="345" font-family="system-ui,sans-serif" font-size="9" opacity=".4">5-6</text><text x="400" y="345" font-family="system-ui,sans-serif" font-size="9" opacity=".4">7-8</text></g></svg>