<svg xmlns="http://www.w3.org/2000/svg" viewBox="0 0 1200 400"><path fill="#0f172a" d="M0 0h1200v400H0z"/><defs><pattern id="a" width="40" height="40" patternUnits="userSpaceOnUse"><path fill="none" stroke="#1e293b" stroke-width=".5" d="M40 0H0v40"/></pattern></defs><path fill="url(#a)" d="M0 0h1200v400H0z" opacity=".5"/><circle cx="150" cy="180" r="35" fill="none" stroke="#14b8a6" stroke-width="2" opacity=".6"/><circle cx="150" cy="180" r="4" fill="#14b8a6" opacity=".8"/><circle cx="340" cy="120" r="28" fill="none" stroke="#f59e0b" stroke-width="2" opacity=".5"/><circle cx="340" cy="120" r="4" fill="#f59e0b" opacity=".8"/><circle cx="520" cy="220" r="32" fill="none" stroke="#8b5cf6" stroke-width="2" opacity=".5"/><circle cx="520" cy="220" r="4" fill="#8b5cf6" opacity=".8"/><circle cx="700" cy="140" r="30" fill="none" stroke="#ef4444" stroke-width="2" opacity=".5"/><circle cx="700" cy="140" r="4" fill="#ef4444" opacity=".8"/><circle cx="880" cy="200" r="26" fill="none" stroke="#22c55e" stroke-width="2" opacity=".5"/><circle cx="880" cy="200" r="4" fill="#22c55e" opacity=".8"/><circle cx="1050" cy="160" r="30" fill="none" stroke="#06b6d4" stroke-width="2" opacity=".5"/><circle cx="1050" cy="160" r="4" fill="#06b6d4" opacity=".8"/><path stroke="#14b8a6" d="m150 180 190-60" opacity=".15"/><path stroke="#f59e0b" d="m340 120 180 100" opacity=".15"/><path stroke="#8b5cf6" d="m520 220 180-80" opacity=".15"/><path stroke="#ef4444" d="m700 140 180 60" opacity=".15"/><path stroke="#22c55e" d="m880 200 170-40" opacity=".15"/><path stroke="#14b8a6" stroke-dasharray="4 6" stroke-width=".5" d="m150 180 370 40" opacity=".08"/><path stroke="#f59e0b" stroke-dasharray="4 6" stroke-width=".5" d="m340 120 360 20" opacity=".08"/><path stroke="#8b5cf6" stroke-dasharray="4 6" stroke-width=".5" d="m520 220 530-60" opacity=".08"/><path stroke="#14b8a6" stroke-dasharray="4 6" stroke-width=".5" d="m150 180 730 20" opacity=".06"/><circle cx="150" cy="180" r="55" fill="none" stroke="#14b8a6" stroke-width=".5" opacity=".12"/><circle cx="520" cy="220" r="50" fill="none" stroke="#8b5cf6" stroke-width=".5" opacity=".1"/><circle cx="880" cy="200" r="42" fill="none" stroke="#22c55e" stroke-width=".5" opacity=".1"/><circle cx="110" cy="140" r="3" fill="#14b8a6" opacity=".3"/><circle cx="195" cy="145" r="2" fill="#14b8a6" opacity=".25"/><circle cx="300" cy="85" r="2" fill="#f59e0b" opacity=".25"/><circle cx="380" cy="155" r="3" fill="#f59e0b" opacity=".3"/><circle cx="475" cy="260" r="2" fill="#8b5cf6" opacity=".25"/><circle cx="565" cy="175" r="2" fill="#8b5cf6" opacity=".25"/><circle cx="660" cy="105" r="2" fill="#ef4444" opacity=".25"/><circle cx="745" cy="180" r="3" fill="#ef4444" opacity=".3"/><circle cx="840" cy="165" r="2" fill="#22c55e" opacity=".25"/><circle cx="920" cy="240" r="2" fill="#22c55e" opacity=".25"/><circle cx="1010" cy="125" r="2" fill="#06b6d4" opacity=".25"/><circle cx="1090" cy="195" r="3" fill="#06b6d4" opacity=".3"/><path fill="url(#b)" d="M0 340h1200v60H0z"/><defs><linearGradient id="b" x1="0" x2="0" y1="0" y2="1"><stop offset="0" stop-color="#0f172a" stop-opacity="0"/><stop offset="1" stop-color="#0f172a"/></linearGradient></defs></svg>