<svg width="960" height="720" viewBox="0 0 960 720" fill="none" xmlns="http://www.w3.org/2000/svg">
  <defs>
    <linearGradient id="bioBg" x1="122" y1="60" x2="790" y2="650" gradientUnits="userSpaceOnUse">
      <stop stop-color="#082F49"/>
      <stop offset="0.58" stop-color="#0284C7"/>
      <stop offset="1" stop-color="#7DD3FC"/>
    </linearGradient>
  </defs>
  <rect width="960" height="720" rx="44" fill="url(#bioBg)"/>
  <rect x="54" y="54" width="852" height="612" rx="32" fill="white" fill-opacity="0.07" stroke="white" stroke-opacity="0.18"/>
  <ellipse cx="278" cy="310" rx="118" ry="138" fill="#E0F2FE" fill-opacity="0.24"/>
  <ellipse cx="278" cy="310" rx="90" ry="110" fill="#E0F2FE" fill-opacity="0.55" stroke="white" stroke-opacity="0.45" stroke-width="8"/>
  <circle cx="280" cy="306" r="34" fill="#0C4A6E"/>
  <circle cx="253" cy="264" r="14" fill="#BAE6FD"/>
  <circle cx="320" cy="270" r="10" fill="#BAE6FD"/>
  <circle cx="334" cy="336" r="12" fill="#BAE6FD"/>
  <circle cx="230" cy="346" r="10" fill="#BAE6FD"/>
  <path d="M535 176C618 92 732 97 799 177C865 256 853 375 768 455C682 535 566 535 499 455C433 374 452 259 535 176Z" stroke="white" stroke-opacity="0.28" stroke-width="16"/>
  <path d="M540 203C602 139 695 138 751 202" stroke="#E0F2FE" stroke-width="8" stroke-linecap="round"/>
  <path d="M531 441C594 506 690 506 756 441" stroke="#E0F2FE" stroke-width="8" stroke-linecap="round"/>
  <path d="M589 238C660 312 661 318 741 395" stroke="#E0F2FE" stroke-width="8" stroke-linecap="round"/>
  <path d="M744 238C675 306 672 317 589 395" stroke="#E0F2FE" stroke-width="8" stroke-linecap="round"/>
  <circle cx="666" cy="320" r="28" fill="#E0F2FE"/>
  <circle cx="540" cy="203" r="20" fill="#BAE6FD"/>
  <circle cx="750" cy="203" r="20" fill="#BAE6FD"/>
  <circle cx="534" cy="440" r="20" fill="#BAE6FD"/>
  <circle cx="754" cy="440" r="20" fill="#BAE6FD"/>
  <rect x="120" y="502" width="420" height="92" rx="24" fill="#082F49" fill-opacity="0.42" stroke="white" stroke-opacity="0.18"/>
  <text x="154" y="560" fill="#E0F2FE" font-family="JetBrains Mono, monospace" font-size="30">cells • transport • respiration</text>
  <text x="110" y="650" fill="white" font-family="DM Serif Display, serif" font-size="74">Biology</text>
</svg>
