<svg xmlns="http://www.w3.org/2000/svg" width="960" height="720" fill="none" viewBox="0 0 960 720"><defs><radialGradient id="b" cx="55%" cy="50%" r="42%" gradientUnits="objectBoundingBox"><stop offset="0%" stop-color="#fb923c" stop-opacity=".11"/><stop offset="100%" stop-color="#ea580c" stop-opacity="0"/></radialGradient><radialGradient id="c" cx="30%" cy="65%" r="36%" gradientUnits="objectBoundingBox"><stop offset="0%" stop-color="#fed7aa" stop-opacity=".07"/><stop offset="100%" stop-color="#ea580c" stop-opacity="0"/></radialGradient><radialGradient id="d" cx="50%" cy="50%" r="50%" gradientUnits="objectBoundingBox"><stop offset="0%" stop-color="#fbbf24" stop-opacity=".9"/><stop offset="60%" stop-color="#ea580c" stop-opacity=".7"/><stop offset="100%" stop-color="#991b1b" stop-opacity=".5"/></radialGradient><linearGradient id="a" x1="0" x2="960" y1="0" y2="720" gradientUnits="userSpaceOnUse"><stop offset="0%" stop-color="#0e0a04"/><stop offset="50%" stop-color="#1a0f06"/><stop offset="100%" stop-color="#0b0702"/></linearGradient></defs><rect width="960" height="720" fill="url(#a)" rx="32"/><rect width="960" height="720" fill="url(#b)" rx="32"/><rect width="960" height="720" fill="url(#c)" rx="32"/><g stroke="#fb923c" stroke-opacity=".035"><path d="M0 144h960M0 288h960M0 432h960M0 576h960M192 0v720M384 0v720M576 0v720M768 0v720"/></g><path stroke="#fb923c" stroke-opacity=".2" stroke-width="2" d="M660 50a310 310 0 0 1 0 620"/><path fill="#1a0f06" fill-opacity=".3" d="M660 50a310 310 0 0 1 0 620z"/><path stroke="#fb923c" stroke-opacity=".18" stroke-width="1.5" d="M660 105a255 255 0 0 1 0 510"/><path stroke="#fb923c" stroke-opacity=".22" stroke-width="1.5" d="M660 175a185 185 0 0 1 0 370"/><path stroke="#f97316" stroke-opacity=".3" stroke-width="1.8" d="M660 255a105 105 0 0 1 0 210"/><path fill="url(#d)" fill-opacity=".6" d="M660 295a65 65 0 0 1 0 130"/><path fill="url(#d)" d="M660 295a65 65 0 0 1 0 130z"/><path fill="#b45309" fill-opacity=".06" d="M660 105a255 255 0 0 1 0 510V175a185 185 0 0 0 0 370Z"/><path fill="#ea580c" fill-opacity=".07" d="M660 175a185 185 0 0 1 0 370V255a105 105 0 0 0 0 210Z"/><g fill="#fed7aa" fill-opacity=".55" font-family="JetBrains Mono, monospace" font-size="11"><text x="700" y="132">crust</text><text x="716" y="202">mantle</text><text x="730" y="272">outer core</text><text x="744" y="354">inner core</text></g><path stroke="#fb923c" stroke-linecap="round" stroke-opacity=".45" stroke-width="2.5" d="M80 200c60 20 120-20 180 10s100-10 160 10"/><path stroke="#fb923c" stroke-linecap="round" stroke-opacity=".38" stroke-width="2" d="M80 400c70-20 140 20 210-5s110 15 170-5"/><g stroke="#fb923c" stroke-linecap="round" stroke-opacity=".35" stroke-width="1.5"><path d="M200 280v60"/><path fill="#fb923c" fill-opacity=".35" d="m200 345-6-15h12z"/><path d="M340 300v60"/><path fill="#fb923c" fill-opacity=".35" d="m340 365-6-15h12z"/></g><circle cx="270" cy="480" r="35" stroke="#fb923c" stroke-opacity=".3" stroke-width="1.5"/><circle cx="270" cy="480" r="65" stroke="#fb923c" stroke-opacity=".2" stroke-width="1.2"/><circle cx="270" cy="480" r="100" stroke="#fb923c" stroke-opacity=".12"/><circle cx="270" cy="480" r="6" fill="#fb923c" fill-opacity=".6"/><path stroke="#fbbf24" stroke-opacity=".5" stroke-width="1.5" d="M262 480h16M270 472v16"/><path stroke="#fb923c" stroke-linecap="round" stroke-linejoin="round" stroke-opacity=".3" stroke-width="2" d="m80 580 80-160 60 80 60-130 60 110 80 120"/><rect width="958" height="718" x="1" y="1" stroke="#fb923c" stroke-opacity=".1" stroke-width="1.5" rx="31"/></svg>