<svg width="960" height="720" viewBox="0 0 960 720" fill="none" xmlns="http://www.w3.org/2000/svg">
  <defs>
    <linearGradient id="earthBg" x1="112" y1="40" x2="820" y2="684" gradientUnits="userSpaceOnUse">
      <stop stop-color="#451A03"/>
      <stop offset="0.56" stop-color="#B45309"/>
      <stop offset="1" stop-color="#FBBF24"/>
    </linearGradient>
  </defs>
  <rect width="960" height="720" rx="44" fill="url(#earthBg)"/>
  <rect x="52" y="52" width="856" height="616" rx="32" fill="white" fill-opacity="0.06" stroke="white" stroke-opacity="0.18"/>
  <path d="M90 512C205 475 284 432 360 430C442 428 529 472 616 470C693 468 775 431 870 378V620H90V512Z" fill="#78350F" fill-opacity="0.54"/>
  <path d="M90 558C193 510 277 488 363 488C455 488 544 528 621 528C708 528 782 493 870 438V620H90V558Z" fill="#92400E"/>
  <path d="M256 486L376 350L444 441L520 314L642 489" stroke="#FEF3C7" stroke-width="14" stroke-linecap="round" stroke-linejoin="round"/>
  <path d="M508 311C522 260 537 233 552 230C573 226 588 252 601 298" stroke="#FDE68A" stroke-width="10" stroke-linecap="round"/>
  <path d="M500 306C523 270 548 249 571 249" stroke="#FCA5A5" stroke-width="8" stroke-linecap="round"/>
  <path d="M394 508L470 430L557 476L640 426" stroke="#FFF7ED" stroke-opacity="0.75" stroke-width="8" stroke-linecap="round" stroke-linejoin="round"/>
  <circle cx="395" cy="508" r="14" fill="#FFF7ED"/>
  <circle cx="470" cy="430" r="12" fill="#FFF7ED"/>
  <circle cx="556" cy="476" r="12" fill="#FFF7ED"/>
  <circle cx="640" cy="426" r="12" fill="#FFF7ED"/>
  <text x="120" y="160" fill="#FEF3C7" font-family="JetBrains Mono, monospace" font-size="30">tectonics • seismic waves • climate</text>
  <text x="108" y="648" fill="white" font-family="DM Serif Display, serif" font-size="74">Earth Science</text>
</svg>
