<svg xmlns="http://www.w3.org/2000/svg" width="960" height="720" fill="none" viewBox="0 0 960 720"><defs><linearGradient id="a" x1="98" x2="850" y1="34" y2="684" gradientUnits="userSpaceOnUse"><stop stop-color="#052e2b"/><stop offset=".35" stop-color="#0d9488"/><stop offset=".7" stop-color="#0d9488"/><stop offset="1" stop-color="#f59e0b"/></linearGradient></defs><rect width="960" height="720" fill="url(#a)" rx="44"/><rect width="872" height="632" x="44" y="44" fill="#fff" fill-opacity=".06" stroke="#fff" stroke-opacity=".18" rx="34"/><g opacity=".72"><rect width="228" height="166" x="84" y="96" fill="#052e2b" fill-opacity=".55" rx="22"/><rect width="218" height="186" x="366" y="78" fill="#082f49" fill-opacity=".52" rx="22"/><rect width="246" height="152" x="632" y="114" fill="#4a041d" fill-opacity=".48" rx="22"/><rect width="224" height="176" x="118" y="316" fill="#78350f" fill-opacity=".46" rx="22"/><rect width="214" height="156" x="394" y="320" fill="#064e3b" fill-opacity=".42" rx="22"/><rect width="180" height="164" x="650" y="334" fill="#1e1b4b" fill-opacity=".52" rx="22"/></g><g fill="#ecfeff" opacity=".9"><circle cx="150" cy="162" r="12"/><circle cx="184" cy="136" r="8"/><circle cx="212" cy="182" r="8"/><circle cx="240" cy="146" r="6"/><circle cx="468" cy="164" r="44"/><circle cx="708" cy="184" r="38"/></g><path stroke="#ecfeff" stroke-linecap="round" stroke-width="8" d="M402 443c56-58 129-87 208-87"/><path stroke="#fef3c7" stroke-linecap="round" stroke-width="8" d="M690 410c30-28 61-44 102-50"/><path stroke="#fff7ed" stroke-linecap="round" stroke-linejoin="round" stroke-width="10" d="m166 418 66-53 54 37"/><path stroke="#e0f2fe" stroke-linecap="round" stroke-width="8" d="M457 170c38-40 80-42 108 0"/><g><circle cx="480" cy="572" r="74" fill="#fff" fill-opacity=".16"/><path fill="#fff" d="m456 533 81 39-81 39z"/><animateTransform attributeName="transform" attributeType="XML" dur="4s" repeatCount="indefinite" type="scale" values="1;1.03;1"/></g><text x="94" y="616" fill="#fff" font-family="DM Serif Display, serif" font-size="78">Curiosity in motion</text></svg>