<svg width="960" height="720" viewBox="0 0 960 720" fill="none" xmlns="http://www.w3.org/2000/svg">
  <defs>
    <linearGradient id="spaceBg" x1="126" y1="36" x2="834" y2="680" gradientUnits="userSpaceOnUse">
      <stop stop-color="#1E1B4B"/>
      <stop offset="0.5" stop-color="#7C3AED"/>
      <stop offset="1" stop-color="#FDBA74"/>
    </linearGradient>
  </defs>
  <rect width="960" height="720" rx="44" fill="url(#spaceBg)"/>
  <rect x="52" y="52" width="856" height="616" rx="32" fill="white" fill-opacity="0.05" stroke="white" stroke-opacity="0.18"/>
  <circle cx="707" cy="216" r="96" fill="#FDE68A"/>
  <circle cx="707" cy="216" r="128" stroke="white" stroke-opacity="0.18" stroke-width="2"/>
  <circle cx="707" cy="216" r="176" stroke="white" stroke-opacity="0.12" stroke-width="2"/>
  <ellipse cx="518" cy="272" rx="224" ry="118" transform="rotate(-18 518 272)" stroke="white" stroke-opacity="0.24" stroke-width="8"/>
  <circle cx="336" cy="338" r="26" fill="#E0E7FF"/>
  <circle cx="500" cy="236" r="22" fill="#C4B5FD"/>
  <circle cx="706" cy="216" r="10" fill="#F59E0B"/>
  <path d="M146 482L250 414L322 449L402 382L477 423L559 364" stroke="#F8FAFC" stroke-opacity="0.7" stroke-width="8" stroke-linecap="round" stroke-linejoin="round"/>
  <circle cx="146" cy="482" r="14" fill="#F8FAFC"/>
  <circle cx="250" cy="414" r="10" fill="#F8FAFC"/>
  <circle cx="322" cy="449" r="10" fill="#F8FAFC"/>
  <circle cx="402" cy="382" r="10" fill="#F8FAFC"/>
  <circle cx="477" cy="423" r="10" fill="#F8FAFC"/>
  <circle cx="559" cy="364" r="10" fill="#F8FAFC"/>
  <text x="118" y="156" fill="#FEF3C7" font-family="JetBrains Mono, monospace" font-size="32">gravity • seasons • phases</text>
  <text x="110" y="648" fill="white" font-family="DM Serif Display, serif" font-size="74">Space Science</text>
</svg>
