<svg width="960" height="720" viewBox="0 0 960 720" fill="none" xmlns="http://www.w3.org/2000/svg">
  <defs>
    <linearGradient id="ecoBg" x1="110" y1="40" x2="796" y2="672" gradientUnits="userSpaceOnUse">
      <stop stop-color="#052E16"/>
      <stop offset="0.54" stop-color="#0F766E"/>
      <stop offset="1" stop-color="#6EE7B7"/>
    </linearGradient>
  </defs>
  <rect width="960" height="720" rx="44" fill="url(#ecoBg)"/>
  <rect x="52" y="52" width="856" height="616" rx="32" fill="white" fill-opacity="0.06" stroke="white" stroke-opacity="0.18"/>
  <circle cx="747" cy="156" r="72" fill="#FDE68A" fill-opacity="0.9"/>
  <path d="M88 506C208 425 307 406 393 424C473 441 536 488 621 489C708 490 779 444 872 364V620H88V506Z" fill="#083344" fill-opacity="0.36"/>
  <path d="M84 526C182 461 262 450 356 461C443 471 523 521 621 520C704 520 781 484 876 414V620H84V526Z" fill="#065F46"/>
  <path d="M160 584C191 540 224 514 258 504C294 493 322 515 358 494C392 474 409 430 432 376" stroke="#D1FAE5" stroke-width="10" stroke-linecap="round"/>
  <path d="M432 376C478 410 518 424 554 418C593 411 618 382 662 368" stroke="#D1FAE5" stroke-width="10" stroke-linecap="round"/>
  <path d="M659 368C709 393 748 393 788 368" stroke="#D1FAE5" stroke-width="10" stroke-linecap="round"/>
  <circle cx="164" cy="585" r="16" fill="#ECFCCB"/>
  <circle cx="432" cy="376" r="16" fill="#ECFCCB"/>
  <circle cx="662" cy="368" r="16" fill="#ECFCCB"/>
  <circle cx="790" cy="368" r="16" fill="#ECFCCB"/>
  <rect x="120" y="96" width="308" height="134" rx="22" fill="#022C22" fill-opacity="0.42" stroke="white" stroke-opacity="0.16"/>
  <text x="150" y="152" fill="#D1FAE5" font-family="DM Serif Display, serif" font-size="52">Energy Flow</text>
  <text x="150" y="198" fill="#ECFCCB" font-family="JetBrains Mono, monospace" font-size="24">food webs • habitats • biodiversity</text>
  <text x="110" y="652" fill="white" font-family="DM Serif Display, serif" font-size="74">Ecology</text>
</svg>
